SIPNOSIS

Un periodista viaja con su familia a lo largo y ancho del país para investigar terribles asesinatos que luego convierte en libros. Cuando llega a una casa donde ha tenido lugar el asesinato de una familia, encuentra una cinta que desvela horribles pistas que van más allá del esclarecimiento de la tragedia.


DATOS TECNICOS


Format                                   : Matroska
Format version                           : Version 4 / Version 2
File size                                : 4.13 GiB
Duration                                 : 1h 49mn
Overall bit rate                         : 5 375 Kbps
Encoded date                             : UTC 2013-02-13 19:13:56
Writing application                      : mkvmerge v6.0.0 ('Coming Up For Air') built on Jan 20 2013 09:52:00
Writing library                          : libebml v1.3.0 + libmatroska v1.4.0

Video
ID                                       : 1
Format                                   : AVC
Format/Info                              : Advanced Video Codec
Format profile                           : High@L4.1
Format settings, CABAC                   : Yes
Format settings, ReFrames                : 5 frames
Codec ID                                 : V_MPEG4/ISO/AVC
Duration                                 : 1h 49mn
Bit rate                                 : 4 932 Kbps
Width                                    : 1 280 pixels
Height                                   : 536 pixels
Display aspect ratio                     : 2.40:1
Frame rate mode                          : Constant
Frame rate                               : 23.976 fps
Color space                              : YUV
Chroma subsampling                       : 4:2:0
Bit depth                                : 8 bits
Scan type                                : Progressive
Bits/(Pixel*Frame)                       : 0.300
Stream size                              : 3.70 GiB (90%)
Writing library                          : x264 core 129 r2245 bc13772
Encoding settings                        : cabac=1 / ref=5 / deblock=1:0:0 / analyse=0x3:0x113 / me=umh / subme=8 / psy=1 / psy_rd=1.00:0.00 / mixed_ref=1 / me_range=16 / chroma_me=1 / trellis=1 / 8x8dct=1 / cqm=0 / deadzone=21,11 / fast_pskip=1 / chroma_qp_offset=-2 / threads=12 / lookahead_threads=2 / sliced_threads=0 / nr=0 / decimate=1 / interlaced=0 / bluray_compat=0 / constrained_intra=0 / bframes=3 / b_pyramid=2 / b_adapt=2 / b_bias=0 / direct=3 / weightb=1 / open_gop=0 / weightp=2 / keyint=240 / keyint_min=24 / scenecut=40 / intra_refresh=0 / rc_lookahead=50 / rc=2pass / mbtree=1 / bitrate=4932 / ratetol=1.0 / qcomp=0.60 / qpmin=0 / qpmax=69 / qpstep=4 / cplxblur=20.0 / qblur=0.5 / ip_ratio=1.40 / aq=1:1.00
Language                                 : English
Default                                  : Yes
Forced                                   : No

Audio
ID                                       : 2
Format                                   : AC-3
Format/Info                              : Audio Coding 3
Mode extension                           : CM (complete main)
Format settings, Endianness              : Big
Codec ID                                 : A_AC3
Duration                                 : 1h 49mn
Bit rate mode                            : Constant
Bit rate                                 : 448 Kbps
Channel(s)                               : 6 channels
Channel positions                        : Front: L C R, Side: L R, LFE
Sampling rate                            : 48.0 KHz
Bit depth                                : 16 bits
Compression mode                         : Lossy
Stream size                              : 352 MiB (8%)
Title                                    : Español Latino
Language                                 : Spanish
Default                                  : Yes
Forced                                   : No

Menu
00:00:00.000                             : en:00:00:00.000
00:10:47.605                             : en:00:10:47.605
00:19:12.360                             : en:00:19:12.360
00:27:15.217                             : en:00:27:15.217
00:37:05.557                             : en:00:37:05.557
00:46:42.383                             : en:00:46:42.383
00:56:37.144                             : en:00:56:37.144
01:07:20.411                             : en:01:07:20.411
01:17:10.751                             : en:01:17:10.751
01:26:22.803                             : en:01:26:22.803
01:33:41.616                             : en:01:33:41.616
01:43:15.147                             : en:01:43:15.147


CONTRASEÑA

Memo2307